<?xml version="1.0" encoding="UTF-8"?>
<!-- Melakapedia pin-heart icon only. -->
<svg xmlns="http://www.w3.org/2000/svg" version="1.1" viewBox="370 0 260 260">
<defs>
    <style>
      .st0 {
        stroke: #111814;
        stroke-width: 2px;
      }

      .st0, .st1 {
        fill: none;
      }

      .st2 {
        fill: #9f4f2b;
      }

      .st3 {
        display: none;
      }

      .st1 {
        stroke: #000;
        stroke-miterlimit: 10;
        stroke-width: 2.5px;
      }
    </style>
  </defs>
<g>
<path d="M496.93,19.49c.01-3.8.09-7.61.24-11.41.22-5.39,1.88-8.08,4.99-8.08,3.11,0,4.75,2.71,4.94,8.1.14,3.81.2,7.61.19,11.42-.01,3.81-.09,7.61-.24,11.41-.22,5.4-1.89,8.09-5,8.08-3.1-.01-4.75-2.71-4.94-8.1-.13-3.81-.19-7.61-.18-11.42Z"/>
<path d="M561.43,14.21c2.69,1.47,2.84,4.59.46,9.35-1.68,3.36-3.43,6.69-5.23,9.98-1.81,3.29-3.68,6.55-5.61,9.77-2.74,4.57-5.45,6.12-8.14,4.64-2.68-1.47-2.84-4.59-.45-9.35,1.68-3.36,3.42-6.69,5.23-9.98,1.8-3.29,3.67-6.55,5.6-9.77,2.74-4.57,5.45-6.12,8.14-4.64Z"/>
<path d="M463.13,41.43c1.32,2.31.51,5.25-1.79,6.56l-.23.13c-2.31,1.32-5.24.51-6.56-1.79l-14.04-24.62c-1.32-2.31-.51-5.25,1.8-6.56l.23-.13c2.31-1.32,5.24-.51,6.56,1.79l14.04,24.62Z"/>
<path d="M431.36,73.32c-1.23,2.15-3.96,2.89-6.11,1.66l-20.48-11.73c-2.15-1.23-2.89-3.97-1.66-6.11l.13-.23c1.23-2.15,3.96-2.89,6.11-1.66l20.48,11.73c2.15,1.23,2.89,3.97,1.66,6.11l-.13.23Z"/>
<rect x="571.95" y="60.44" width="31.16" height="9.2" rx="4.46" ry="4.46" transform="translate(48.29 307.19) rotate(-30.5)"/>
<path class="st2" d="M565.6,116.07c-4.03-16.09-12.81-28.36-26.34-36.83-11.27-7.05-23.39-10.58-36.35-10.58s-25.08,3.53-36.35,10.59c-13.53,8.46-22.31,20.74-26.33,36.83-4.04,16.15-2.12,31.63,5.75,46.44,3.78,7.1,8.6,15.46,14.46,25.07,9.91,16.27,21.89,34.78,35.94,55.54,1.24,1.82,4.2,5.3,6.54,5.3s5.31-3.48,6.54-5.31c14.05-20.75,26.03-39.27,35.94-55.54,5.85-9.61,10.67-17.96,14.45-25.07,7.87-14.81,9.79-30.29,5.75-46.44ZM525.99,147.43c-6.99,7.07-14.37,13.88-22.14,20.41-.67.57-1.67.52-2.3-.1-2.83-2.8-5.76-5.4-8.77-7.8-6.99-5.57-13.03-11.46-18.1-17.68-8.89-10.92-6.78-28.35,7.34-33.61,8.01-2.98,15.58.21,20.36,6.95.28.39.84.44,1.18.1,1.3-1.32,2.62-3.18,4.43-4.47,5.7-4.07,11.57-4.74,17.61-1.99,2.93,1.33,5.17,3.21,6.73,5.63,7.61,11.77,2.5,23.6-6.34,32.56Z"/>
<rect x="536.06" y="28.86" width="32.36" height="3.8" rx="1.87" ry="1.87" transform="translate(262.52 501.9) rotate(-61.6)"/>
<rect x="449.87" y="15.5" width="3.82" height="31.86" rx="1.87" ry="1.87" transform="translate(40.74 221.53) rotate(-28.8)"/>
<rect x="415.88" y="51.81" width="3.16" height="26.54" rx="1.55" ry="1.55" transform="translate(155.25 396.37) rotate(-60.5)"/>
</g>
</svg>
